HIERARCHY
ROOT Hips
{
	OFFSET 0.00000 0.00000 0.00000
	CHANNELS 6 Xposition Yposition Zposition Yrotation Zrotation Xrotation 
	JOINT Lumbar
	{
		OFFSET 0 0 0
		CHANNELS 3 Zrotation Xrotation Yrotation
		JOINT Neck
		{
			OFFSET 0.00 0.2701 0.00
			CHANNELS 3 Zrotation Xrotation Yrotation
			End Site
			{
				OFFSET 0.00 0.1379 0.00
			}
		}
		JOINT RightShoulder
		{
			OFFSET 0.0119 0.2289 0.1181
			CHANNELS 3 Zrotation Xrotation Yrotation
			JOINT RightElbow
			{
				OFFSET 0.00 -0.1475 0.00
				CHANNELS 2 Zrotation Yrotation
				JOINT RightWrist
				{
					OFFSET 0.00 -0.1605 0.00
					CHANNELS 2 Zrotation Xrotation
					End Site
					{
						OFFSET 0.0040 -0.1068 0.0006
					}
				}
			}
		}
		JOINT LeftShoulder
		{
			OFFSET 0.0119 0.2289 -0.1181
			CHANNELS 3 Zrotation Xrotation Yrotation
			JOINT LeftElbow
			{
				OFFSET 0.00 -0.1475 0.00
				CHANNELS 2 Zrotation Yrotation
				JOINT LeftWrist
				{
					OFFSET 0.00 -0.1605 0.00
					CHANNELS 2 Zrotation Xrotation
					End Site
					{
						OFFSET 0.0040 -0.1068 -0.0006
					}
				}
			}
		}
	}
	JOINT RightHip
	{
		OFFSET 0.0316 -0.0424 0.0458
		CHANNELS 3 Zrotation Xrotation Yrotation
		JOINT RightKnee
		{
			OFFSET 0.00 -0.2438 0.00
			CHANNELS 1 Zrotation
			JOINT RightAnkle
			{
				OFFSET 0.00 -0.2449 0.00
				CHANNELS 3 Zrotation Xrotation Yrotation
				End Site
				{
					OFFSET 0.1237 -0.0542 0.0051
				}
			}
		}
	}
	JOINT LeftHip
	{
		OFFSET 0.0316 -0.0424 -0.0458
		CHANNELS 3 Zrotation Xrotation Yrotation
		JOINT LeftKnee
		{
			OFFSET 0.00 -0.2438 0.00
			CHANNELS 1 Zrotation
			JOINT LeftAnkle
			{
				OFFSET 0.00 -0.2449 0.00
				CHANNELS 3 Zrotation Xrotation Yrotation
				End Site
				{
					OFFSET 0.1237 -0.0542 -0.0051
				}
			}
		}
	}
}
MOTION
Frames: 20
Frame Time: 0.02
-0 0.57926 0 182.7651 0 3.09494 9.36222 -1.37747 -2.82244 -36.22873 2.36454 4.78247 26.74609 -14.35924 -1.53418 10.34274 85.5726 1.11596 1.79368 29.20746 3.32775 1.20567 8.53844 -68.05323 -4.51139 -0.72668 2.45415 2.07994 14.18372 -21.04377 11.13883 -8.9494 -12.67627 0.98375 -2.5451 -5.53748 -16.16292 8.07512 6.74467 11.95344
0.00024 0.57924 -0.00013 182.7963 0 3.10432 9.34751 -1.36619 -2.79671 -36.13606 2.33783 4.80607 26.74524 -14.39167 -1.2666 10.32912 85.57173 1.09478 1.82047 29.24622 3.38942 0.78208 8.56385 -68.13355 -4.545 -0.64637 2.50109 2.09781 14.20713 -21.10069 11.14166 -8.95159 -12.73196 1.04476 -2.5482 -5.56516 -16.22603 8.07217 6.75866 11.95695
0.00048 0.57921 -0.00026 182.82909 0 3.11372 9.33257 -1.35478 -2.77102 -36.04369 2.31042 4.82814 26.74413 -14.42257 -1.00004 10.31595 85.57014 1.07356 1.84666 29.28478 3.45223 0.3593 8.58983 -68.21453 -4.57899 -0.56615 2.54783 2.11536 14.22826 -21.15727 11.1445 -8.95383 -12.78739 1.10633 -2.55154 -5.59439 -16.28972 8.06936 6.7726 11.96061
0.00072 0.57919 -0.00039 182.86396 0 3.12299 9.31659 -1.34306 -2.7462 -35.94907 2.28234 4.84715 26.74069 -14.45086 -0.73345 10.30438 85.56565 1.05157 1.87118 29.31941 3.51681 -0.06212 8.6179 -68.29666 -4.61453 -0.48551 2.59431 2.13261 14.24555 -21.21303 11.1471 -8.95581 -12.84182 1.16918 -2.555 -5.62676 -16.35494 8.06618 6.78597 11.96493
0.00095 0.57916 -0.00052 182.88217 0 3.1326 9.30614 -1.33338 -2.71787 -35.86319 2.26072 4.88576 26.74795 -14.49685 -0.46517 10.28429 85.57651 1.03315 1.90509 29.37054 3.56789 -0.48796 8.63439 -68.3699 -4.64151 -0.40709 2.64231 2.15239 14.28929 -21.27315 11.15058 -8.95858 -12.90096 1.22332 -2.55677 -5.6385 -16.41035 8.06382 6.80176 11.96576
0.00121 0.57913 -0.00065 182.93945 0 3.14171 9.28401 -1.31911 -2.69625 -35.76106 2.22348 4.88058 26.73373 -14.50273 -0.202 10.28226 85.55491 1.00755 1.91874 29.38969 3.65029 -0.90596 8.6757 -68.46376 -4.68682 -0.32404 2.68697 2.16615 14.27289 -21.32395 11.15246 -8.96005 -12.95048 1.29717 -2.56283 -5.69653 -16.48761 8.06053 6.81283 11.97395
0.00153 0.57913 -0.00077 183.07939 0 3.14775 9.22834 -1.29366 -2.69991 -35.59358 2.15641 4.76911 26.64969 -14.41545 0.06347 10.33113 85.44003 0.95826 1.87833 29.29492 3.80185 -1.29828 8.78641 -68.60386 -4.78386 -0.22588 2.72358 2.16844 14.11768 -21.3498 11.14762 -8.95495 -12.97038 1.41842 -2.57541 -5.86598 -16.62007 8.04819 6.8073 12.00396
0.00188 0.57914 -0.00087 183.26456 0 3.15365 9.16142 -1.26326 -2.70934 -35.41464 2.07053 4.6105 26.54704 -14.28398 0.32029 10.39757 85.29324 0.90277 1.81754 29.17386 3.98889 -1.68483 8.92214 -68.76712 -4.89932 -0.12353 2.75641 2.16355 13.89595 -21.36608 11.1417 -8.94913 -12.98116 1.56107 -2.59336 -6.08501 -16.77578 8.03633 6.79785 12.04132
0.00222 0.57915 -0.00096 183.44443 0 3.16065 9.09999 -1.23415 -2.71146 -35.25229 1.98516 4.46398 26.45808 -14.16163 0.57175 10.45602 85.16284 0.85206 1.76414 29.07961 4.17053 -2.0759 9.04603 -68.92668 -5.00573 -0.02426 2.79055 2.15881 13.68746 -21.38633 11.13764 -8.94551 -12.99807 1.69854 -2.61224 -6.29271 -16.92424 8.02817 6.79222 12.07417
0.00253 0.57915 -0.00112 183.55591 0 3.16309 9.03556 -1.20916 -2.73243 -35.03625 1.93583 4.35739 26.34204 -14.08707 0.86559 10.51663 85.02316 0.79145 1.71668 28.91696 4.30478 -2.45493 9.17191 -69.05655 -5.11496 0.08069 2.82739 2.16788 13.55317 -21.40839 11.12736 -8.93377 -13.0065 1.81644 -2.61664 -6.45456 -17.05827 8.00253 6.77714 12.11127
0.00291 0.57916 -0.00113 183.82557 0 3.17523 8.97648 -1.17433 -2.71665 -34.93644 1.80435 4.15578 26.28427 -13.90056 1.06507 10.57426 84.8969 0.75202 1.65449 28.89765 4.54878 -2.86265 9.29956 -69.25486 -5.22277 0.17389 2.85648 2.14563 13.24544 -21.42414 11.13031 -8.93903 -13.03057 1.98066 -2.65279 -6.72189 -17.22842 8.01461 6.78187 12.14212
0.0035 0.57919 -0.00075 184.47815 0 3.21211 8.9186 -1.11433 -2.58764 -35.09552 1.47449 3.71009 26.33595 -13.43414 1.04057 10.64263 84.80086 0.75417 1.53535 29.21618 5.06317 -3.30738 9.42651 -69.62657 -5.3214 0.24204 2.87569 2.04595 12.50137 -21.42688 11.16514 -8.98901 -13.09873 2.26377 -2.77257 -7.28396 -17.48757 8.11946 6.83239 12.14639
0.00415 0.57922 -0.00021 185.2962 0 3.25905 8.8688 -1.04451 -2.42293 -35.38144 1.05931 3.17 26.45586 -12.85471 0.91489 10.70354 84.72194 0.78057 1.40609 29.68932 5.68991 -3.78847 9.55439 -70.06785 -5.41802 0.29702 2.8853 1.91371 11.58021 -21.4231 11.21406 -9.05643 -13.1831 2.5935 -2.92459 -7.94766 -17.78297 8.2637 6.90434 12.14527
0.00475 0.57925 0.00029 186.06677 0 3.30289 8.82693 -0.97861 -2.28197 -35.65517 0.66607 2.66758 26.58316 -12.31296 0.81306 10.75196 84.64504 0.80885 1.2954 30.1372 6.28265 -4.28267 9.68135 -70.48426 -5.51617 0.35207 2.89228 1.79147 10.7228 -21.42108 11.25996 -9.11759 -13.26102 2.90435 -3.06363 -8.55451 -18.06538 8.3981 6.97356 12.15187
0.00545 0.57929 0.00067 186.72251 0 3.34093 8.7387 -0.91462 -2.11137 -35.74746 0.33849 2.18203 26.55386 -11.82095 0.80474 10.86597 84.52653 0.7854 1.12492 30.40479 6.81017 -4.65515 9.81081 -70.87448 -5.61276 0.43078 2.92847 1.68887 9.93346 -21.42426 11.29223 -9.17222 -13.33512 3.20612 -3.19586 -9.20778 -18.33487 8.50114 7.01506 12.13748
0.00597 0.57931 0.00134 187.65535 0 3.39291 8.7453 -0.84464 -1.99153 -36.23433 -0.13991 1.64403 26.85945 -11.20716 0.57727 10.84396 84.49807 0.87185 1.07697 31.07162 7.49279 -5.28533 9.93554 -71.33361 -5.71138 0.45887 2.90181 1.53816 8.96146 -21.41461 11.35537 -9.24393 -13.42066 3.53768 -3.34982 -9.78829 -18.63838 8.67553 7.11694 12.16419
0.0059 0.57922 0.00282 189.31838 0 3.48557 9.04373 -0.75859 -2.04098 -37.89424 -1.06442 0.94717 28.13933 -10.21628 -0.22406 10.42669 84.72292 1.28713 1.36852 32.91526 8.63483 -6.65607 10.04106 -71.98215 -5.81996 0.33367 2.70227 1.25891 7.52699 -21.37647 11.50772 -9.36425 -13.538 3.93899 -3.5561 -10.13896 -19.03659 9.06523 7.40146 12.31638
0.00566 0.57911 0.0046 191.25235 0 3.59105 9.4308 -0.66741 -2.13871 -39.92382 -2.12786 0.20877 29.74136 -9.12023 -1.24174 9.87741 85.03582 1.80602 1.78384 35.13282 9.91731 -8.27695 10.14226 -72.69476 -5.92963 0.16058 2.44036 0.93316 5.91629 -21.32483 11.68921 -9.50002 -13.66557 4.36846 -3.78303 -10.41347 -19.46545 9.51977 7.74192 12.50801
0.00553 0.57901 0.00624 193.05964 0 3.68765 9.75713 -0.57963 -2.20119 -41.71133 -3.09496 -0.48706 31.15289 -8.11684 -2.16703 9.40163 85.30339 2.25744 2.14374 37.1079 11.09765 -9.75969 10.24982 -73.367 -6.03639 0.02099 2.20789 0.63106 4.38644 -21.27576 11.85259 -9.62509 -13.78576 4.78608 -4.00039 -10.72517 -19.87444 9.92683 8.04315 12.67468
0.00523 0.5789 0.00787 194.89165 0 3.79756 10.17254 -0.48622 -2.31941 -43.82308 -4.20678 -1.28961 32.75399 -6.9181 -3.07858 8.86562 85.59603 2.79722 2.50072 39.40169 12.44631 -11.3507 10.34093 -74.08811 -6.15407 -0.16656 1.96961 0.3169 2.84359 -21.24098 12.03731 -9.76665 -13.918 5.20264 -4.21984 -11.02929 -20.31159 10.41293 8.40415 12.87129
